<svg width="30" height="30" viewBox="0 0 30 30" fill="none" xmlns="http://www.w3.org/2000/svg">
<circle opacity="0.2" cx="15" cy="15" r="15" fill="white"/>
<path d="M9.23865 10.3909C8.92046 10.0727 8.92046 9.55683 9.23865 9.23864C9.55684 8.92045 10.0727 8.92045 10.3909 9.23864L20.7614 19.6091C21.0795 19.9273 21.0795 20.4432 20.7614 20.7613C20.4432 21.0795 19.9273 21.0795 19.6091 20.7613L9.23865 10.3909Z" fill="#D1D1D1"/>
<path d="M20.7613 10.3909C21.0795 10.0727 21.0795 9.55685 20.7613 9.23866C20.4432 8.92046 19.9273 8.92046 19.6091 9.23866L9.23864 19.6091C8.92045 19.9273 8.92045 20.4432 9.23864 20.7614C9.55683 21.0795 10.0727 21.0795 10.3909 20.7614L20.7613 10.3909Z" fill="#D1D1D1"/>
</svg>
