<svg width="36" height="36" viewBox="0 0 36 36" fill="none" xmlns="http://www.w3.org/2000/svg">
<circle cx="18" cy="18" r="18" fill="#1D1D41"/>
<path d="M24.206 10.598L10.598 24.206C10.2677 24.5362 10.2677 25.0717 10.598 25.402C10.9283 25.7322 11.4637 25.7322 11.794 25.402L25.402 11.794C25.7323 11.4637 25.7323 10.9282 25.402 10.598C25.0717 10.2677 24.5363 10.2677 24.206 10.598Z" fill="white"/>
<path d="M11.794 10.598L25.402 24.206C25.7323 24.5362 25.7323 25.0717 25.402 25.402C25.0717 25.7322 24.5363 25.7322 24.206 25.402L10.598 11.794C10.2677 11.4637 10.2677 10.9282 10.598 10.598C10.9283 10.2677 11.4637 10.2677 11.794 10.598Z" fill="white"/>
</svg>
